<svg xmlns="http://www.w3.org/2000/svg" viewBox="0 0 54 32.5">
	<path fill="#99c6ea" d="M0 21.667h54V32.5H0z" />
	<path fill="#f9fdea" d="M0 10.833h54v10.833H0z" />
	<path fill="#99c6ea" d="M0 0h54v10.833H0z" />
	<path fill="#acdd4d"
		d="M24.227 18.624c-.215 1.032.58 1.241 1.302 1.666.394.232.702.701 1.18.756.47.053.733-.293 1.099-.512.241-.145.524-.19.773-.317.57-.291.878-.803.895-1.43-.478.262-.898.636-1.424.804-1.385.443-2.673-.3-3.825-.967z" />
	<path fill="#659533"
		d="M35.011 16.59c-.206.41-.464.81-.855 1.065-.48.314-1.12.414-1.667.56-1.013.272-1.949.678-2.491 1.63-.181.318-.26.66-.317 1.018 1.454-.785 3.245.22 4.546-1.107.196-.2.355-.43.472-.683.167-.36.265-.75.33-1.14.077-.45.145-.905-.018-1.343m-15.788-.244c-.931 1.917.182 3.785 2.238 4.136.953.163 1.793-.257 2.686.259-.106-1.023-.67-1.955-1.628-2.394-.988-.454-2.113-.32-2.843-1.27-.17-.22-.274-.473-.371-.73h-.082" />
	<path fill="#acdd4d"
		d="M27.32 17.038c-.905-.307-1.015-.987-.854-1.831-.828.26-.727.868-.423 1.505.094.198.14.446.362.544.318.14.664-.024.915-.218m1.383-1.912c.114.388.273.769.272 1.18-.002 1.204-1.012 1.78-2.021 2.075v.081c.505.297 1.067.437 1.625.177.227-.106.397-.295.618-.409.222-.115.604-.065.725-.325.103-.219-.022-.514-.023-.745-.007-.954-.07-1.85-1.196-2.034m-2.156 3.092c-1.03-.289-1.742-1.102-1.772-2.197-.01-.399.117-.791.185-1.18-1.229.254-1.235 1.175-1.146 2.197.023.266-.1.62.085.848.158.195.483.189.695.302.664.353 1.393.876 1.953.03m-.082-3.662c.936.233 1.218.833 1.018 1.75.76-.303.772-.823.414-1.464-.114-.205-.231-.414-.461-.504-.338-.13-.698.018-.97.218" />
	<path fill="#acdd4d"
		d="M28.744 14.922c.557-.315.782-.996.324-1.525-.207-.238-.512-.329-.75-.525-.202-.166-.32-.44-.564-.554-.361-.169-.705.108-1.044.196-.315.083-.635.06-.936.204-.445.212-1.29 1.166-.652 1.639.234.174.83-.559 1.059-.675.723-.368 1.892-.32 2.368.43.153.242.153.535.195.81" />
	<path fill="#acdd4d"
		d="M28.338 11.789c.337.466.933.678 1.329 1.102.611.656 1.143 1.85 1.085 2.763-.024.38-.192.738-.299 1.099.776-.066 1.624-.5 1.61-1.384-.006-.412-.22-.776-.254-1.18-.027-.322.277-.654.127-.962-.154-.316-.558-.256-.793-.468-.228-.205-.319-.523-.545-.736-.644-.608-1.496-.484-2.26-.234m-5.494 4.435c.162-.56.154-1.163.357-1.709.524-1.413 1.7-2.098 3.02-2.604-.425-.525-1.416-.576-1.993-.292-.337.165-.592.46-.936.612-.33.146-.797.034-1.035.356-.235.32.048.85-.066 1.236-.256.864-.402 2.001.653 2.401" />
</svg>
