<svg xmlns="http://www.w3.org/2000/svg" viewBox="0 0 2000 1200">
	<path fill="#1e1e1e" d="M-2.843 477.904h2004.505V721.04H-2.843z" />
	<path fill="#fff"
		d="M965.72 499.578c-3.597-.055-7.391.139-11.392.615-64.005 7.62-69.085 70.27-69.085 70.27s-12.022 63.499 11.514 103.968c23.537 40.469 71.118 25.23 71.118 25.23s25.568-3.049 50.46-58.25l14.73 56.895h43.01V689.5l-9.81-2.629-25.918-87.284 36.744-85.85v-8.635h-33.02l-14.561 52.153s-9.823-56.85-63.79-57.678zm.273 16.69c41.94.192 48.245 81.602 48.585 86.465l-.001.002v.003c-1.151 3.228-2.27 6.364-4.753 13.405-13.17 37.357-18.2 43.583-29.694 55.077s-16.763 11.495-30.173 10.058c-13.41-1.437-25.144-19.157-28.257-42.146-3.113-22.989-2.155-39.033-2.155-39.033s-5.028-77.826 42.146-83.573a34.257 34.257 0 0 1 4.302-.257z" />
	<path fill="#313146" d="M-.017 360.04h2000.039V480H-.017z" />
	<path fill="#404082" d="M-.047 240.091h2000.066v119.952H-.047z" />
	<path fill="#4848c2" d="M-.105-.101h2000.124v240.198H-.105z" />
	<path fill="#453232" d="M-.005 720.028h2000.094v119.925H-.005z" />
	<path fill="#7e4443" d="M-.01 839.95h2000.078v119.776H-.01z" />
	<path fill="#c14a4a" d="M-.147 959.721h2000.209v240.438H-.147z" />
</svg>
