<svg xmlns="http://www.w3.org/2000/svg" viewBox="0 0 20 12">
	<path fill="#dbaeff" d="M0 0h20v12H0z" />
	<path fill="#d59fff" d="M0 0h20v11H0z" />
	<path fill="#cd90ff" d="M0 0h20v10H0z" />
	<path fill="#c67fff" d="M0 0h20v9H0z" />
	<path fill="#c271ff" d="M0 0h20v8H0z" />
	<path fill="#bb61ff" d="M0 0h20v7H0z" />
	<path fill="#b451ff" d="M0 0h20v6H0z" />
	<path fill="#ad43ff" d="M0 0h20v5H0z" />
	<path fill="#a632ff" d="M0 0h20v4H0z" />
	<path fill="#9915ff" d="M0 0h20v3H0z" />
	<path fill="#9205ff" d="M0 0h20v2H0z" />
	<path fill="#8a01f5" d="M0 0h20v1H0z" />
</svg>
