<?xml version="1.0" encoding="UTF-8" standalone="no"?>
<svg
   viewBox="0 0 1200 630"
   version="1.1"
   sodipodi:docname="default.social.svg"
   width="1200"
   height="630"
   inkscape:version="1.3 (0e150ed6c4, 2023-07-21)"
   id="svg1"
   xml:space="preserve"
   xmlns:inkscape="http://www.inkscape.org/namespaces/inkscape"
   xmlns:sodipodi="http://sodipodi.sourceforge.net/DTD/sodipodi-0.dtd"
   xmlns="http://www.w3.org/2000/svg"
   xmlns:svg="http://www.w3.org/2000/svg"><defs
     id="defs1"><filter
       height="1.7619048"
       width="1.4"
       y="-0.38095238"
       x="-0.2"
       style="color-interpolation-filters:sRGB;"
       inkscape:label="Blur"
       id="filter4"><feGaussianBlur
         stdDeviation="100 100"
         result="blur"
         id="feGaussianBlur4" /><feColorMatrix
         values="1 0 0 0 0 0 1 0 0 0 0 0 1 0 0 0 0 0 50 0 "
         result="colormatrix"
         id="feColorMatrix4" /><feComposite
         in="colormatrix"
         in2="SourceGraphic"
         operator="in"
         id="feComposite4" /></filter></defs><sodipodi:namedview
     id="namedview6"
     pagecolor="#ffffff"
     bordercolor="#000000"
     borderopacity="0.25"
     inkscape:showpageshadow="2"
     inkscape:pageopacity="0.0"
     inkscape:pagecheckerboard="0"
     inkscape:deskcolor="#d1d1d1"
     inkscape:zoom="0.67874885"
     inkscape:cx="324.12578"
     inkscape:cy="480.29547"
     inkscape:window-width="2931"
     inkscape:window-height="1736"
     inkscape:window-x="26"
     inkscape:window-y="23"
     inkscape:window-maximized="0"
     inkscape:current-layer="svg1" /><g
     inkscape:label="background"
     id="g1"
     style="filter:url(#filter4)"><path
       fill="#770088"
       d="M 0,0 H 1200 V 630 H 0 Z"
       id="path1" /><path
       fill="#004cff"
       d="M 0,0 H 1200 V 525 H 0 Z"
       id="path2" /><path
       fill="#028121"
       d="M 0,0 H 1200 V 420 H 0 Z"
       id="path3" /><path
       fill="#ffee00"
       d="M 0,0 H 1200 V 315 H 0 Z"
       id="path4" /><path
       fill="#ff8d00"
       d="M 0,0 H 1200 V 210 H 0 Z"
       id="path5" /><path
       fill="#e50000"
       d="M 0,0 H 1200 V 105 H 0 Z"
       id="path6" /></g><g
     style="display:inline;fill:none;stroke:#ffffff;stroke-width:1.5;stroke-linecap:round;stroke-linejoin:round;stroke-dasharray:none;stroke-opacity:1"
     id="g3"
     transform="matrix(20,0,0,20,360,81)"
     inkscape:label="flag"><path
       d="m 4,15 c 0,0 1,-1 4,-1 3,0 5,2 8,2 3,0 4,-1 4,-1 V 3 C 20,3 19,4 16,4 13,4 11,2 8,2 5,2 4,3 4,3 Z"
       id="path1-7"
       inkscape:label="flag"
       style="stroke:#ffffff;stroke-width:1.5;stroke-dasharray:none;stroke-opacity:1" /><line
       x1="4"
       y1="22"
       x2="4"
       y2="15"
       id="line1"
       inkscape:label="pole"
       style="stroke:#ffffff;stroke-width:1.5;stroke-dasharray:none;stroke-opacity:1" /></g><g
     style="fill:none;stroke:#ffffff;stroke-width:2.05764;stroke-linecap:round;stroke-linejoin:round;stroke-dasharray:none;stroke-opacity:1"
     id="g4"
     transform="matrix(11.66382,0,0,11.66382,459.97582,124.55124)"
     inkscape:label="question"><path
       d="m 9.09,9 a 3,3 0 0 1 5.83,1 c 0,2 -3,3 -3,3"
       id="path1-5"
       style="stroke:#ffffff;stroke-width:2.05764;stroke-dasharray:none;stroke-opacity:1"
       inkscape:label="swirl" /><line
       x1="12"
       y1="17"
       x2="12.01"
       y2="17"
       id="line1-6"
       style="stroke:#ffffff;stroke-width:2.05764;stroke-dasharray:none;stroke-opacity:1"
       inkscape:label="dot" /></g></svg>
