<svg xmlns="http://www.w3.org/2000/svg" viewBox="0 0 500 300">
	<rect fill="#91f291" width="500" height="300" />
	<rect fill="#ffffff" width="500" height="100" y="100" />

	<path fill="#66023c"
		d="m236.59 132.05s-11.071-15.469-2.7997-24.544c8.6001-9.4352 16.248 1.2636 16.248 1.2636s8.0958-11.229 16.728-0.71273c7.3297 8.9298-2.8654 23.37-2.8654 23.37s10.504-14.154 21.441-9.0948c11.071 5.1212 3.8212 15.34 3.8212 15.34s9.6564 2.0942 8.1211 11.16c-2.8814 17.014-29.018 8.6733-29.018 8.6733s21.637 6.1041 19.487 19.782c-1.8961 12.061-13.736 7.957-13.736 7.957s-0.16194 13.259-12.454 10.603c-9.684-2.0924-11.559-15.293-11.559-15.293s-2.1459 16.006-14.96 15.612c-9.4404-0.28959-9.069-10.954-9.069-10.954s-10.25 3.9469-13.243-5.6298c-4.7652-15.248 18.299-21.873 18.299-21.873s-26.332 7.9987-28.407-10.082c-0.89338-7.783 8.3124-9.9544 8.3124-9.9544s-5.6928-8.0359 0.57055-13.38c12.101-10.324 25.084 7.7566 25.084 7.7566z" />

	<g fill="#ffff00">
		<circle cx="250.1" cy="125.59" r="2.9" />
		<circle cx="231.7" cy="132.83" r="2.9" />
		<circle cx="225.88" cy="151.23" r="2.9" />
		<circle cx="231.71" cy="169.7" r="2.9" />
		<circle cx="250.1" cy="175.53" r="2.9" />
		<circle cx="268.02" cy="169.72" r="2.9" />
		<circle cx="268.05" cy="132.82" r="2.9" />
		<circle cx="274.23" cy="151.24" r="2.9" />
	</g>

	<path fill="none" stroke="#ffff00" stroke-miterlimit="15" stroke-width="1.3"
		d="m248.77 148.02 1.3395-16.138 1.3223 16.147 12.298-10.436-10.37 12.316 15.046 1.3301-15.034 1.3968 10.311 12.245-12.274-10.376-1.3144 15.146-1.3066-15.193-12.248 10.413 10.249-12.235-14.983-1.3816 15.077-1.3218-10.41-12.321z" />
</svg>
