<svg xmlns="http://www.w3.org/2000/svg" viewBox="0 0 330 220">
	<path fill="#c162ff" d="M0 0h110v220H0z" />
	<path fill="#fff" d="M110 0h110v220H110z" />
	<path fill="#3f67ff" d="M220 0h110v220H220z" />
	<path fill="#eaa1e0"
		d="m164.995 86 .74 1.5 1.66.24-1.2 1.17.29 1.65-1.49-.78-1.48.78.29-1.65-1.2-1.17 1.65-.24zm-17.47 14.54.74 1.5 1.66.24-1.2 1.17.28 1.65-1.48-.78-1.48.78.28-1.65-1.2-1.17 1.66-.24zm-17.03-3.33.74 1.5 1.65.24-1.19 1.17.28 1.65-1.48-.78-1.48.78.28-1.65-1.2-1.17 1.66-.24zm69.01 0 .74 1.5 1.66.24-1.2 1.17.28 1.65-1.48-.78-1.48.78.28-1.65-1.2-1.17 1.66-.24z" />
	<path fill="#eaa1e0"
		d="M197.105 102.3c-4.36 1.16-17.52 14.64-17.52 14.64-.81-2.94.66-10.48.66-10.48l-9.22 8.81-6.03-23.51-6.03 23.5-9.22-8.81s1.47 7.55.66 10.48c0 0-13.17-13.47-17.52-14.64 0 0 13.73 15.55 10.33 31.7 0 0 8.08-4.18 21.78-3.85 13.88-.29 21.78 3.86 21.78 3.86-3.39-16.16 10.33-31.7 10.33-31.7z" />
	<path d="m182.475 100.54-.74 1.5-1.66.24 1.2 1.17-.28 1.65 1.48-.78 1.48.78-.28-1.65 1.19-1.17-1.65-.24z" />
	<path fill="#fff"
		d="m161.255 124-.52 1.04-1.14.16.83.81-.2 1.14 1.03-.54 1.02.54-.19-1.14.82-.81-1.14-.16zm-3.55.28-.51 1.04-1.15.16.83.81-.19 1.14 1.02-.54 1.03.54-.2-1.14.83-.81-1.15-.16zm-3.66.28-.52 1.03-1.14.17.83.81-.2 1.14 1.03-.54 1.02.54-.2-1.14.83-.81-1.14-.17zm-3.37.83-.51 1.04-1.15.17.83.81-.2 1.14 1.03-.54 1.02.54-.19-1.14.83-.81-1.15-.17zm14.32-1.67.52 1.04 1.14.16-.83.81.2 1.14-1.03-.54-1.02.54.2-1.14-.83-.81 1.14-.16zm3.75.28.51 1.04 1.15.16-.83.81.2 1.14-1.03-.54-1.02.54.19-1.14-.83-.81 1.15-.16zm3.55.28.51 1.04 1.15.16-.83.81.19 1.14-1.02-.54-1.03.54.2-1.14-.83-.81 1.14-.16zm3.66.28.52 1.03 1.14.17-.83.81.2 1.14-1.03-.54-1.02.54.19-1.14-.83-.81 1.15-.17zm3.37.83.51 1.04 1.15.17-.83.81.19 1.14-1.02-.54-1.02.54.19-1.14-.83-.81 1.15-.17z" />
</svg>
