<svg xmlns="http://www.w3.org/2000/svg" viewBox="0 0 198 132">
	<path fill="#80b" d="M0 0h198.44v132.29H0z" />
	<path fill="#00f" d="M0 18.899h198.44v113.39H0z" />
	<path fill="#8bd" d="M0 37.802h198.44v94.494H0z" />
	<path fill="#6b4" d="M0 56.692h198.44v75.595H0z" />
	<path fill="#fe0" d="M0 75.592h198.44v56.696H0z" />
	<path fill="#f61" d="M0 94.492h198.44v37.798H0z" />
	<path fill="#f10" d="M0 113.39h198.44v18.899H0z" />
	<path fill="#fff"
		d="M35.93 83.192V49.101h11.046c4.186 0 6.914.17 8.186.512 1.953.511 3.589 1.624 4.906 3.337 1.318 1.713 1.977 3.926 1.977 6.639 0 2.093-.38 3.852-1.14 5.278-.76 1.427-1.724 2.547-2.895 3.36-1.17.815-2.36 1.353-3.57 1.617-1.643.326-4.022.488-7.139.488h-4.488v12.86zm6.883-28.324v9.674h3.767c2.714 0 4.527-.178 5.442-.535.915-.357 1.632-.915 2.151-1.674.52-.76.779-1.644.779-2.651 0-1.24-.364-2.264-1.093-3.07s-1.651-1.31-2.767-1.511c-.822-.155-2.473-.233-4.953-.233zM98.48 83.192h-7.488l-2.976-7.744H74.388l-2.813 7.744h-7.302L77.55 49.101h7.278zM85.806 69.704l-4.697-12.65-4.605 12.65zm38.164.948 6.674 2.116c-1.023 3.72-2.725 6.484-5.104 8.29-2.38 1.806-5.4 2.71-9.058 2.71-4.527 0-8.247-1.547-11.162-4.64s-4.372-7.32-4.372-12.685c0-5.674 1.465-10.08 4.395-13.22 2.93-3.139 6.783-4.709 11.557-4.709 4.17 0 7.558 1.233 10.162 3.698 1.55 1.457 2.713 3.55 3.489 6.278l-6.814 1.628c-.403-1.767-1.244-3.162-2.523-4.186s-2.833-1.534-4.662-1.534c-2.528 0-4.578.907-6.151 2.72-1.574 1.814-2.36 4.752-2.36 8.814 0 4.31.775 7.38 2.325 9.209 1.55 1.829 3.566 2.743 6.046 2.743 1.83 0 3.403-.58 4.72-1.744 1.318-1.162 2.264-2.992 2.838-5.488zm12.6 12.54V49.101h25.278v5.767h-18.394v7.558h17.115v5.744h-17.115v9.278h19.045v5.744z" />
</svg>
