<svg xmlns="http://www.w3.org/2000/svg" viewBox="0 0 720 432">
	<rect fill="#ffffff" width="720" height="432" />
	<path fill="#171796"
		d="M0 255.287 306.077 432H152.333L0 344.051ZM0 77.902 613.316 432H459.57L0 166.668ZM258.61 0 720 266.383v88.764L104.867 0Zm306.302 0L720 89.54v88.764L411.169 0Z" />
	<path fill="#000000"
		d="M0 344.01 152.404 432H0Zm0-177.428L459.718 432H305.973L0 255.348ZM411.325 0 720 178.213v88.4C565.962 177.567 411.904 88.75 257.952 0ZM720 0v89.552L564.89 0Z" />
	<path fill="#eb2629"
		d="M312.453 175.568H449.15c30.578-29.927 56.673-30.253 72.13 0 3.689 22.173-6.951 34.649-27.46 40.43 20.509 5.785 31.149 18.261 27.46 40.434-15.457 30.253-41.552 29.927-72.13 0h-178.3c-30.585 29.927-56.678 30.253-72.13 0-3.69-22.173 6.946-34.65 27.457-40.434-20.51-5.781-31.146-18.257-27.457-40.43 15.452-30.253 41.545-29.927 72.13 0z" />
</svg>
