<svg xmlns="http://www.w3.org/2000/svg" viewBox="0 0 5000 3000">
	<path d="M0 3000h5000V0H0z" />
	<path fill="#fcc800"
		d="m3389.53 2162.38-441.96 225.19-840.31-1200.13H-.07V612.45h2406.6l726.51 1037.57L4999.8 698.86v645l-1605.7 818.16" />
	<path
		d="m3389.53 2174.94-441.96 225.19L2107.26 1200H-.07v575h1807.95l857.72 1224.93h371.1l171.84-87.55 1791.25-912.69v-643.3l-1605.7 818.16 1605.7-798.6v-19.55" />
	<path fill="#d32011"
		d="M0 1132.2h2142.02l826.97 1181.07 2029.6-1034.15 1.29 148.98-2073.7 1056.59-853.66-1219.18-2072.64.02v-133.34 133.34m4999.93 809.13-1817.47 926.06-292.45-1.9L4999.8 1923.76v150.9z" />
	<path fill="#d32011"
		d="M1773.26 1840.52H0v-133.34h1842.64l904.4 1291.6h-162.76l-811.06-1158.3m673.45-1283.14H-.03v133.33H2377.3l738.43 1054.6 1884.15-960.03V635.59L3158.4 1573.83l-711.76-1016.5-2446.7.01v133.34" />
</svg>
