<svg xmlns="http://www.w3.org/2000/svg" viewBox="0 0 1040 640">
	<path fill="#ccabe5" d="M0 0h1040v640H0Z" />
	<path fill="#9d5bd1" d="M0 0h1040v512H0Z" />
	<path fill="#6b2b9d" d="m0-1.067 1040 257.783v126.217H0Z" />
	<path fill="#34164e" d="M0 1.074 1040 129.07v127.997L0 257.074Z" />
	<path d="M0 0h1040v128H0Z" />
	<path fill="#fff430"
		d="M551.81 472.246c61.45-13.691 107.484-60.67 120.11-122.57 2.394-11.745 3.878-35.338 2.625-41.758-.816-4.178-.817-4.176-3.365 5.293-5.194 19.301-15.545 37.757-29.284 52.214-9.314 9.8-16.48 15.427-28.28 22.203-17.787 10.214-37.71 15.474-58.604 15.472-56.854-.006-103.818-36.5-117.94-91.647-2.454-9.58-2.796-13.032-2.815-28.438-.018-14.795.362-19.084 2.434-27.447 10.004-40.385 36.677-70.909 75.362-86.243 4.827-1.913 8.775-3.727 8.775-4.032 0-1.027-19.598.818-29.91 2.816-14.933 2.893-27.574 7.2-40.82 13.909-43.246 21.904-73.511 62.02-83.137 110.193-2.625 13.139-2.612 42.918.024 56.122 3.966 19.867 11.893 40.158 21.463 54.941 24.379 37.66 60.936 61.885 106.322 70.456 11.817 2.23 44.14 1.39 57.04-1.484z" />
	<path fill="#fff"
		d="M582.833 373.963c26.877-7.935 47.491-24.938 59.646-49.196 11.302-22.556 13.293-49.53 5.374-72.794-10.21-29.994-33.864-52.633-64.856-62.075-8.616-2.624-11.087-2.9-26.006-2.9-14.92 0-17.39.276-26.006 2.9-31.118 9.48-54.605 31.96-64.856 62.075-7.359 21.616-6.199 47.016 3.116 68.237 12.65 28.817 37.123 48.392 69.785 55.816 10.69 2.43 31.978 1.427 43.803-2.063z" />
</svg>
