<svg xmlns="http://www.w3.org/2000/svg" viewBox="0 0 1322.917 793.75">
	<path fill="#8b56dd" d="M0 0h1322.917v793.75H0Z" />
	<path stroke="#fff" stroke-width="263.884" d="M0 396.875h1322.917" />
	<path fill="#e4ea16"
		d="M747.547 297.795c2.28 1.214 7.055 4.365 9.005 5.906 10.827 8.64 16.274 19.3 14.73 28.796-.219 1.472-1.872 5.988-2.205 6.143-.08.016-.72-.616-1.435-1.425-3.078-3.474-6.912-4.77-11.202-3.79-6.35 1.471-13.359 8.187-20.803 19.9-1.748 2.744-5.606 9.399-5.987 10.316-.06.146.421.516 1.241.954 5.793 3.11 11.253 7.083 15.823 11.493 3.105 2.997 9.634 10.515 11.239 12.89 3.746 5.631 6.277 11.956 8.046 20.236 2.858 13.371 2.806 31.935-.145 51.128-.676 4.458-2.366 13.306-2.591 13.555-.077.066-.599-.737-1.172-1.83-6.799-12.758-19.263-19.806-40.103-22.731-5.537-.782-11.041-1.232-19.524-1.623-9.744-.474-13.776-.997-19.325-2.516-2.89-.808-7.929-2.848-9.934-4.021-1.68-1.014-4.701-3.268-5.873-4.389l-.87-.849.095 1.48c.414 5.423.04 13.986-.867 19.765-1.518 9.847-4.15 16.962-8.54 23.25-4.41 6.28-9.891 10.308-17.671 12.993-14.484 5.01-26.304 19.5-27.827 34.132-.13 1.314-.214 2.696-.194 3.119.049.411.003.758-.065.804-.206.085-4.978-5.606-6.605-7.867-9.598-13.43-15.658-30.035-16.816-45.974-.564-8.122.61-14.84 4.04-23.114 2.237-5.397 4.38-9.271 8.636-15.59l.449-.67-.778.167c-3.313.629-9.072.854-13.162.527-1.272-.113-5.165-.677-8.615-1.252-7.032-1.181-13.305-2.073-16.08-2.27-2.42-.174-11.188.416-14.584 1.01-7.696 1.304-14.175 3.795-17.922 6.882l-1.253 1.02.167-1.934c.811-9.262 3.924-21.599 7.855-31.081 5.357-12.92 12.76-23.65 21.74-31.527 8.79-7.712 19.393-12.963 30.354-15.013 2.666-.482 9.362-.905 14.34-.893 1.88-.002 3.468-.003 3.536-.048.08-.016-.252-.984-.719-2.154-1.572-3.925-2.62-8.17-3.448-13.714-.515-3.706-1.123-11.724-.858-11.834.295-.122 5.346 3.07 8.347 5.316 9.618 7.138 18.195 16.727 23.204 25.91 1.405 2.56 3.05 6.369 2.794 6.458-.06.024-1.32.063-2.796.086-19.283.212-33.405 4.76-45.032 14.545-5.415 4.52-9.722 9.254-16.014 17.538a487.254 487.254 0 0 0-3.515 4.649c-.2.307.751-.397 2.156-1.549 17.396-14.45 37.677-21.013 60.121-19.425 9.506.693 18.152 2.52 26.208 5.59l4.261 1.62.186-.802c1.8-7.874 2.37-15.551 1.786-23.804-.794-11.22-3.237-21.587-7.678-32.611-3.715-9.184-7.822-16.48-12.804-22.722-2.075-2.594-6.372-7.135-6.637-7.025-.03.012.744 1.798 1.736 3.943 3.67 7.994 8.261 20.13 10.252 27.11 1.666 5.82 2.848 12.097 2.941 15.702.062 1.735-.187 5.222-.403 5.743-.138.333.177.635-3.867-3.63-9.448-10.023-19.88-19.086-29.132-25.34-4.79-3.231-11.456-6.947-15.29-8.537l-1.48-.613-.318-4.357c-.603-8.09-1.438-12.319-3.355-16.826-1.884-4.468-4.56-8.264-8.707-12.28-1.933-1.876-6.528-5.637-8.544-6.96-.648-.44-1.208-.917-1.236-1.026-.03-.28 4.493-2.118 8.506-3.434 18.671-6.155 36.539-6.074 50.01.195 4.706 2.195 8.021 4.449 12.79 8.673 8.234 7.297 13.438 14.95 18.982 27.969 1.021 2.426 1.94 4.394 1.977 4.36.06-.024.876-1.053 1.822-2.273 4.94-6.377 11.8-12.496 18.54-16.442 11.535-6.794 25.886-9.954 39.806-8.774 5.972.498 6.528.63 11.171 2.507 2.373.935 4.656 1.906 5.089 2.159zm-45.279 37.642c-9.896 3.37-18.846 11.114-24.825 21.53-2.136 3.681-5.859 13.543-5.676 14.987.034.331.055.34.188.077.242-.583 8.486-10.573 13.103-15.936 7.555-8.737 14.066-15.49 19.098-19.85l2.316-1.995-1.193.287c-.647.146-1.993.565-3.011.9zm14.515 62.775c-1.533-.367-5.142-.91-8.037-1.232-11.907-1.322-14.815-1.673-19.61-2.415-4.972-.792-5.023-.788-4.343-.189.928.825 3.656 2.493 5.858 3.601 3.827 1.904 11.789 4.082 19.428 5.27 9.718 1.538 17.817 4.505 26.045 9.577a82.477 82.477 0 0 1 3.914 2.576c.822.609 1.533 1.075 1.592 1.05.088-.036-1.725-2.497-3.86-5.239-2.879-3.66-7.139-7.111-12.435-10.064-1.369-.763-5.837-2.298-8.552-2.935zm-79.4 28.284c-5.505 2.382-9.842 5.42-14.075 9.916-9.277 9.83-15.743 26.956-16.326 43.15-.066 2.22-.033 4.969.05 5.003.042.017 2.015-4.684 4.43-10.448 3.326-8.023 4.835-11.427 6.462-14.587 5.925-11.464 12.349-21.891 18.427-29.897 1.185-1.56 2.355-3.029 2.58-3.277.641-.663.268-.646-1.547.14z" />
	<path fill="#52db17"
		d="M551.74 311.92c8.678-.907 36.626-15.54 97.578 46.121 1.578-25.394-14.89-44.44-16.234-57.4 11.803 11.684 49.436 31.754 28.374 96.234-42.443-14.815-71.554-4.137-97.016 16.554 14.664-16.903 20.347-39.593 67.482-43.212-17.936-26.21-42.471-47.3-80.183-58.296z" />
	<ellipse fill="#df357d" cx="554.498" cy="-184.308" rx="4.361" ry="7.47" transform="translate(0 496.75)" />
	<ellipse fill="#df357d" cx="566.877" cy="-88.639" rx="4.361" ry="7.47" transform="translate(0 496.75)" />
	<ellipse fill="#df357d" cx="635.833" cy="-191.805" rx="4.361" ry="7.47" transform="translate(0 496.75)" />
</svg>
