<svg xmlns="http://www.w3.org/2000/svg" viewBox="0 0 924.09 555.59">
	<path fill="#340c46" d="M924.09 555.59H0v-185.2h924.09z" />
	<path fill="#e50051" d="M924.09 370.39H0v-185.2h924.09z" />
	<path fill="#009fe3" d="M924.09 185.2H0V0h924.09z" />
	<path fill="#fff" d="M185.2 0H0v555.59L370.39 185.2 185.2 0z" />
	<path fill="#fcbf00"
		d="M89.62 94.72c-23.89 23.89-23.89 62.64 0 86.53l3.82 3.82-4.07 4.07c-23.89 23.89-23.89 62.64 0 86.53s62.64 23.89 86.53 0l4.07-4.07 86.53-86.53.79-.79-87.09-85.52-.23-.23-3.82-3.82c-23.89-23.89-62.64-23.89-86.53 0Z" />
</svg>
