<svg xmlns="http://www.w3.org/2000/svg" viewBox="0 0 1600 960">
	<path fill="#fd8ba8" d="M0 0v320l800 160 800-160V0H0zm800 480L0 640v320h1600V640L800 480z" />
	<path fill="#fbf2ff" d="M0 320h1600v320H0z" />
	<path fill="#c76bc5"
		d="M733.816 629.096c-9.144-.883-21.276-4.892-27.556-9.105-4.651-3.12-9.182-8.499-11.54-13.699-6.74-14.864-5.525-36.358 3.04-53.812 3.07-6.254 6.267-9.692 13.498-14.512 12.23-8.154 35.72-17.567 60.645-24.303l3.423-.925 3.457 1.798c5.98 3.112 10.67 6.516 15.59 11.317l2.69 2.625-.28 4.64c-2.162 35.732-7.7 60.447-16.562 73.92-2.404 3.655-9.81 11.058-13.661 13.656-9.883 6.668-21.038 9.53-32.744 8.4zm122.584.003c-8.114-.785-15.886-3.629-22.96-8.402-3.853-2.6-11.248-9.993-13.7-13.698-8.77-13.25-14.37-38.286-16.523-73.878l-.28-4.64 2.69-2.625c4.92-4.8 9.61-8.205 15.59-11.317l3.457-1.798 3.423.925c14.314 3.868 31.376 9.76 42.598 14.709 13.263 5.849 23.046 12.138 27.775 17.856 2.249 2.72 5.436 9.19 7.255 14.73 5.346 16.276 5.183 32.92-.445 45.332-2.358 5.2-6.889 10.579-11.54 13.7-4.573 3.067-14.312 6.813-21.146 8.131-6.227 1.202-10.921 1.484-16.194.975zM702.72 515.505c-12.31-.587-22.753-2.513-27.688-5.11-8.127-4.274-14.66-13.993-17.22-25.62-1.261-5.724-1.606-9.239-1.583-16.135.035-10.182 1.574-20.23 4.46-29.12 3.397-10.462 12.15-19.026 22.511-22.025 4.16-1.204 7.386-1.608 12.64-1.584 17.675.081 35.746 8.585 54.4 25.6 8.843 8.065 19.116 19.889 25.528 29.38 2.064 3.056 2.168 3.303 2.493 5.908.757 6.072-.913 14.055-4.518 21.601-2.074 4.342-3.778 6.875-5.3 7.882-7.38 4.878-24.226 8.186-47.003 9.23-7.698.352-11.205.35-18.72-.007zm175.032.013c-25.274-1.209-44.64-5.768-48.342-11.38-5.384-8.165-8.624-19.722-7.667-27.35.38-3.03.845-3.865 6.063-10.868 12.571-16.872 27.643-31.013 42.347-39.732 17.612-10.443 36.656-13.216 50.45-7.346 8.44 3.592 15.683 11.557 18.688 20.552 4.436 13.274 5.787 31.688 3.235 44.077-1.403 6.809-4.245 13.454-7.778 18.183-3.268 4.375-7.613 7.972-11.573 9.581-2.404.977-7.239 2.2-11.175 2.828-8.383 1.337-23.388 1.974-34.248 1.455z" />
	<circle fill="#f996c9" cx="800.14" cy="495.73" r="21.452" />
	<path fill="#fff71e"
		d="M797.95 508.468c-6.648-1.14-11.65-8.097-10.458-14.544 1.616-8.743 10.578-13.33 18.462-9.451 4.776 2.35 7.699 7.986 6.856 13.22-1.151 7.146-7.82 11.982-14.86 10.775z" />
	<path fill="#c76bc5"
		d="M795.84 466.873c-1.848-.122-3.977-.328-4.73-.458-3.193-.547-11.662-7.25-21.03-16.64-18.052-18.096-30.842-37.998-35.204-54.778-2.05-7.886-2.467-16.125-1.14-22.517 2.32-11.181 9.076-20.443 20.526-28.136 10.347-6.952 21.457-11.16 34.378-13.021 4.93-.71 16.488-.69 22.08.04 17.064 2.226 34.05 10.164 44.457 20.776 5.895 6.01 9.866 13.559 11.289 21.456.692 3.844.679 11.191-.028 15.205-1.684 9.564-5.633 19.579-11.747 29.794-9.897 16.536-28.158 36.604-41.335 45.426-3.219 2.155-4.125 2.458-8.082 2.702l-4.474.276c-.88.054-3.112-.003-4.96-.125z" />
</svg>
