<svg xmlns="http://www.w3.org/2000/svg" viewBox="0 0 500 300">
	<path fill="#708" d="M0 0h500v300H0V0z" />
	<path fill="#004cff" d="M0 0h500v250H0V0z" />
	<path fill="#028121" d="M0 0h500v200H0V0z" />
	<path fill="#fe0" d="M0 0h500v150H0V0z" />
	<path fill="#ff8d00" d="M0 0h500v100H0V0z" />
	<path fill="#e50000" d="M0 0h500v50H0V0z" />
	<path
		d="M322.06 222.55c-.06.61-.13 1.23-.18 1.84-.7 8.74-3.36 16.87-7.66 24.49-.28.5-.59.98-.83 1.5-.15.33-.38.44-.7.5-2.09.38-4.17.22-6.22-.25-4.29-.97-8-3.1-11.4-5.83-4.94-3.96-8.84-8.82-12.22-14.12-4.23-6.64-7.9-13.59-11.36-20.66-6.9-14.11-12.95-28.58-18.33-43.33-1.23-3.36-2.39-6.75-3.6-10.18-.05.15-.1.27-.14.4-6 19.69-13.21 38.93-21.85 57.62-3.11 6.73-6.43 13.34-10.28 19.68-2.67 4.4-5.72 8.51-9.43 12.1-3.29 3.18-6.93 5.85-11.27 7.45-2.22.82-4.51 1.31-6.89 1.23-.47-.02-.94-.07-1.41-.11-.41-.04-.67-.23-.9-.61-2.27-3.76-4.3-7.64-5.82-11.78a59.139 59.139 0 0 1-3.08-12.2c-.59-4.2-.6-8.44-.46-12.67.09-2.59.23-5.19.46-7.77.24-2.71.53-5.43.96-8.11.7-4.31 1.43-8.62 2.34-12.89 1.96-9.28 4.7-18.33 7.96-27.23 5.35-14.64 11.93-28.68 20.14-41.95 3.15-5.09 6.53-10.01 10.49-14.51.98-1.12 2.02-2.18 3.05-3.27-.58-.78-1.2-1.56-1.77-2.37-3.09-4.43-5.05-9.32-5.86-14.67-2.72-17.98 8.94-35.03 26.71-39 1.66-.37 3.38-.5 5.08-.74.16-.02.32-.06.48-.09h4.02c.16.03.32.07.48.09 1.9.29 3.83.45 5.69.9 17.3 4.15 28.68 20.93 26.16 38.5-.87 6.02-3.14 11.45-6.84 16.28l-.96 1.23c4.18 4.57 7.8 9.52 11.14 14.68 11.66 18.02 20.51 37.35 26.84 57.84 2.04 6.59 3.73 13.27 4.94 20.06.6 3.37 1.13 6.75 1.55 10.15.37 2.94.55 5.91.8 8.87.08.92.13 1.85.19 2.77-.02 2.04-.02 4.1-.02 6.16zM231.49 95.19c.18-.06.37-.09.53-.18 1.44-.72 2.85-1.52 4.33-2.14 1.19-.5 2.47-.78 3.71-1.15.01.02.01-.02-.01-.03-.08-.05-.17-.1-.26-.14a13.76 13.76 0 0 1-3.71-2.85c-.87-.95-1.65-1.95-1.93-3.24-.43-1.98-.42-3.95.06-5.92.08-.33.2-.66.3-.99.11.19.1.35.11.51.08 1.02.13 2.05.26 3.07.18 1.38.92 2.57 1.4 3.85.83 2.22 2.2 4.03 3.96 5.56.11.09.24.22.36.22.59-.02 1.17-.07 1.82-.12-.56-.3-1.07-.56-1.55-.85-.83-.51-1.36-1.25-1.6-2.19-.14-.55-.01-1.05.44-1.41.29-.23.6-.5.94-.6.84-.24 1.69-.52 2.55-.56 1.16-.05 2.33.11 3.56.18-3.81-5.81-7.62-11.61-11.46-17.45.48-.37.94-.74 1.42-1.07.66-.45.7-.43 1.16.2.16.22.33.45.47.68l10.26 16.38c.1.16.2.31.33.51.12-.21.2-.35.29-.49 2.29-3.89 4.56-7.8 6.87-11.68.72-1.22 1.52-2.4 2.28-3.6.16-.25.35-.33.61-.16.61.4 1.21.81 1.82 1.22-2.69 4.32-5.33 8.56-7.98 12.83.78-.08 1.49-.18 2.2-.22.58-.04 1.01.25 1.25.77.12.26.2.55.25.84.35 1.86-.31 3.14-2.01 3.91-.13.06-.26.13-.38.2.93.07 1.83.09 2.71.22 2.48.35 4.77 1.28 6.97 2.45 3.59 1.93 6.75 4.45 9.72 7.22l1.02.96c10.04-11.87 10.22-31.02-2.53-43.25-12.35-11.85-32.15-11.79-44.42.49-12.28 12.29-11.89 31.14-2.04 42.73.05-.03.11-.07.16-.11 1.86-1.43 3.72-2.86 5.58-4.3.09-.07.14-.2.21-.3h-.03zm-25.27 90.61c.69.34 1.23.8 1.64 1.4.9 1.32 2.07 2.35 3.4 3.2 3.54 2.24 7.48 3.05 11.59 3.22 3.8.16 7.56-.28 11.28-1.05.34-.07.5-.21.61-.52.45-1.19.93-2.36 1.38-3.55 5.84-15.17 11.07-30.55 14.98-46.34 1.08-4.36 1.98-8.77 2.79-13.19.54-2.93.9-5.9 1.14-8.87.18-2.2.18-4.45 0-6.65-.26-3.02-.96-5.98-1.82-8.89-.74-2.49-1.62-4.92-3.12-7.08-.67-.96-1.43-1.84-2.52-2.34-.88-.41-1.95-.1-2.49.7-5.2 7.75-9.89 15.81-14.25 24.06-5.56 10.52-10.49 21.33-14.66 32.47-2.12 5.67-4.1 11.4-5.69 17.25-1.24 4.55-2.3 9.15-3.43 13.73-.19.79-.61 1.17-1.21 1.04-.61-.13-.86-.64-.69-1.43.39-1.74.76-3.48 1.17-5.21 1.92-8.09 4.37-16.03 7.21-23.84 4.66-12.82 10.32-25.19 16.79-37.19 4.07-7.55 8.42-14.94 13.21-22.05.25-.37.17-.6-.26-.63-.78-.05-1.57-.12-2.34-.05-2.21.21-4.23 1.02-6.17 2.05-3.78 2-6.99 4.73-10.01 7.71-3.81 3.76-6.99 8.02-9.96 12.44-6.67 9.92-12.18 20.47-17 31.39-4.95 11.2-9.06 22.71-12.14 34.57-.09.33-.05.57.19.79.47.43.91.9 1.42 1.28 2.97 2.2 6.37 2.64 9.92 2.2 1.7-.21 3.38-.68 5.06-1.04.71-.15 1.42-.24 2.14-.1-.1.34-.19.62-.26.91-1.1 4.85-2.23 9.7-3.29 14.57-1.64 7.55-3.21 15.11-4.21 22.78-.2 1.52-.3 3.05-.42 4.58-.05.65.34 1.09.91 1.12.57.03 1-.37 1.03-1 .18-3.56.67-7.09 1.35-10.59 1.48-7.56 3.03-15.11 4.6-22.65.66-3.07 1.41-6.1 2.13-9.2zm88.46-4.05c.87-.18 1.72-.06 2.56.16 3.06.79 6.14 1.21 9.3.64 2.56-.47 4.78-1.57 6.54-3.54.25-.28.32-.53.21-.91-4.3-14.83-10.12-29.05-17.26-42.73-4.96-9.5-10.47-18.66-17.09-27.12-3.34-4.26-7.06-8.14-11.38-11.42-2.6-1.97-5.35-3.68-8.47-4.71-1.78-.59-3.6-.94-5.48-.64-.67.11-.75.29-.38.83 2.16 3.21 4.38 6.39 6.47 9.65a290.99 290.99 0 0 1 19 34.7c5.73 12.4 10.54 25.14 14.01 38.37.41 1.56.79 3.13 1.17 4.71.14.58-.17 1.07-.71 1.2-.52.12-.99-.17-1.16-.73-.04-.14-.07-.29-.11-.43-.78-2.97-1.51-5.95-2.35-8.9-3.34-11.62-7.71-22.86-12.79-33.82-4.94-10.65-10.49-20.98-16.73-30.92-2.72-4.34-5.64-8.57-8.47-12.84-.12-.19-.26-.46-.44-.5-.87-.22-1.76-.47-2.5.32.3.19.63.37.94.58 1.51 1.06 2.54 2.52 3.4 4.11 1.57 2.89 2.54 6 3.22 9.19.47 2.21.91 4.44 1.16 6.69.34 3.03.07 6.07-.24 9.09-.42 4.02-1.13 8-1.94 11.96-1.22 5.92-2.74 11.76-4.38 17.58-.05.18-.06.39-.01.56a424.6 424.6 0 0 0 2.01 6.02c3.55 10.29 7.48 20.43 11.74 30.44.14.32.31.48.65.54 4.09.69 8.18 1.07 12.33.65 2.64-.27 5.22-.82 7.65-1.9 2.48-1.11 4.67-2.59 6.2-4.92.35-.54.93-.93 1.47-1.47.09.35.13.54.18.72 2.32 8.66 4.51 17.35 6.38 26.12.89 4.18 1.58 8.41 2.33 12.62.17.98.2 1.98.32 2.97.07.58.51.91 1.05.87.52-.05.87-.44.87-1 0-.29-.01-.59-.06-.88-.49-3.18-.89-6.37-1.5-9.53-1.71-8.85-3.88-17.6-6.12-26.33-.52-2.03-1.05-4.02-1.59-6.05z" />
	<path fill="#fff"
		d="M206.22 185.8c-.72 3.1-1.48 6.13-2.11 9.18-1.57 7.54-3.12 15.09-4.6 22.65-.68 3.49-1.18 7.02-1.35 10.59-.03.63-.45 1.04-1.03 1-.56-.03-.96-.47-.91-1.12.12-1.53.22-3.06.42-4.58 1-7.67 2.56-15.23 4.21-22.78 1.06-4.86 2.19-9.71 3.29-14.57.06-.29.16-.56.26-.91-.72-.15-1.43-.06-2.14.1-1.69.36-3.36.83-5.06 1.04-3.54.44-6.94 0-9.92-2.2-.51-.38-.95-.85-1.42-1.28-.24-.22-.28-.45-.19-.79 3.08-11.86 7.19-23.37 12.14-34.57 4.82-10.92 10.33-21.47 17-31.39 2.97-4.42 6.16-8.69 9.96-12.44 3.02-2.98 6.24-5.71 10.01-7.71 1.94-1.03 3.97-1.84 6.17-2.05.77-.07 1.56-.01 2.34.05.43.03.51.26.26.63-4.79 7.12-9.14 14.5-13.21 22.05-6.47 12-12.13 24.37-16.79 37.19-2.84 7.81-5.29 15.75-7.21 23.84-.41 1.73-.78 3.47-1.17 5.21-.18.79.07 1.3.69 1.43.6.13 1.01-.25 1.21-1.04 1.13-4.58 2.19-9.18 3.43-13.73 1.59-5.85 3.56-11.57 5.69-17.25 4.17-11.15 9.1-21.95 14.66-32.47 4.36-8.25 9.05-16.3 14.25-24.06.54-.8 1.61-1.11 2.49-.7 1.09.5 1.85 1.38 2.52 2.34 1.5 2.16 2.38 4.59 3.12 7.08.86 2.91 1.56 5.87 1.82 8.89.19 2.2.18 4.45 0 6.65-.24 2.97-.6 5.94-1.14 8.87-.82 4.42-1.71 8.83-2.79 13.19-3.91 15.79-9.15 31.16-14.98 46.34-.46 1.19-.94 2.36-1.38 3.55-.12.31-.28.45-.61.52-3.72.77-7.48 1.21-11.28 1.05-4.11-.17-8.05-.98-11.59-3.22-1.34-.85-2.51-1.87-3.4-3.2-.43-.58-.97-1.04-1.66-1.38z" />
	<path fill="#fff"
		d="M294.68 181.75c.53 2.03 1.06 4.02 1.58 6.01 2.24 8.73 4.42 17.48 6.12 26.33.61 3.16 1.01 6.35 1.5 9.53.04.29.06.59.06.88 0 .56-.35.96-.87 1-.54.05-.98-.29-1.05-.87-.12-.99-.15-1.99-.32-2.97-.75-4.21-1.44-8.43-2.33-12.62-1.87-8.77-4.06-17.46-6.38-26.12-.05-.19-.09-.37-.18-.72-.55.54-1.12.93-1.47 1.47-1.53 2.33-3.72 3.81-6.2 4.92-2.43 1.09-5 1.63-7.65 1.9-4.15.42-8.24.04-12.33-.65-.35-.06-.52-.22-.65-.54-4.26-10.01-8.19-20.15-11.74-30.44-.69-2-1.35-4.01-2.01-6.02-.06-.17-.04-.39.01-.56 1.64-5.81 3.16-11.66 4.38-17.58.82-3.96 1.52-7.94 1.94-11.96.32-3.03.59-6.06.24-9.09-.25-2.25-.69-4.48-1.16-6.69-.69-3.19-1.65-6.3-3.22-9.19-.86-1.59-1.89-3.05-3.4-4.11-.31-.21-.63-.4-.94-.58.74-.79 1.63-.54 2.5-.32.18.05.32.31.44.5 2.83 4.27 5.75 8.5 8.47 12.84 6.24 9.94 11.79 20.27 16.73 30.92 5.09 10.96 9.46 22.2 12.79 33.82.85 2.95 1.57 5.93 2.35 8.9.04.14.07.29.11.43.17.56.64.85 1.16.73.54-.13.86-.62.71-1.2-.38-1.57-.76-3.14-1.17-4.71-3.47-13.23-8.28-25.97-14.01-38.37-5.54-12-11.88-23.56-19-34.7-2.09-3.26-4.3-6.43-6.47-9.65-.37-.54-.29-.72.38-.83 1.89-.3 3.7.06 5.48.64 3.12 1.03 5.87 2.74 8.47 4.71 4.32 3.28 8.05 7.16 11.38 11.42 6.62 8.46 12.13 17.62 17.09 27.12 7.15 13.68 12.96 27.9 17.26 42.73.11.38.04.63-.21.91-1.76 1.96-3.98 3.07-6.54 3.54-3.15.57-6.24.15-9.3-.64-.83-.18-1.68-.3-2.55-.12z" />
	<path fill="#fff"
		d="M231.5 95.18c-.07.1-.12.23-.21.3-1.86 1.44-3.72 2.87-5.58 4.3-.05.04-.11.07-.16.11-9.85-11.59-10.24-30.45 2.04-42.73 12.27-12.28 32.07-12.34 44.42-.49 12.74 12.23 12.56 31.38 2.53 43.25l-1.02-.96c-2.97-2.78-6.12-5.29-9.72-7.22-2.2-1.18-4.48-2.1-6.97-2.45-.89-.12-1.78-.15-2.71-.22.13-.07.25-.14.38-.2 1.7-.77 2.37-2.05 2.01-3.91a3.53 3.53 0 0 0-.25-.84c-.24-.52-.67-.81-1.25-.77-.71.05-1.42.14-2.2.22 2.65-4.27 5.29-8.51 7.98-12.83-.61-.41-1.22-.82-1.82-1.22-.26-.17-.45-.09-.61.16-.76 1.2-1.55 2.38-2.28 3.6-2.3 3.89-4.58 7.79-6.87 11.68-.08.14-.16.28-.29.49-.13-.2-.23-.35-.33-.51l-10.26-16.38c-.15-.23-.31-.46-.47-.68-.46-.63-.5-.65-1.16-.2-.48.33-.94.7-1.42 1.07 3.83 5.84 7.64 11.64 11.46 17.45-1.23-.07-2.4-.24-3.56-.18-.86.04-1.72.32-2.55.56-.34.1-.65.37-.94.6-.45.36-.58.85-.44 1.41.24.94.77 1.69 1.6 2.19.48.29.99.55 1.55.85-.64.04-1.23.1-1.82.12-.12 0-.26-.12-.36-.22-1.76-1.54-3.13-3.35-3.96-5.56-.48-1.28-1.22-2.47-1.4-3.85-.13-1.02-.18-2.05-.26-3.07-.01-.16 0-.32-.11-.51-.1.33-.22.65-.3.99-.48 1.97-.49 3.94-.06 5.92.28 1.3 1.06 2.3 1.93 3.24 1.07 1.17 2.31 2.11 3.71 2.85.09.05.17.09.26.14.02.01.02.05.01.03-1.24.38-2.52.66-3.71 1.15-1.48.62-2.89 1.42-4.33 2.14-.17.08-.35.12-.53.18-.13-.15-.25-.3-.39-.43-3.48-3.15-5.21-7.19-5.9-11.74-.38-2.52-.05-5.01.46-7.48l.33-1.6c-.16.1-.24.22-.3.35-1.08 2.49-1.79 5.07-2.03 7.77-.12 1.45-.14 2.92.39 4.31 1.4 3.65 3.79 6.51 7.05 8.67.14.08.29.1.42.15zm29.45-34.63c.39.08.79.15 1.18.24.41.1.82.21 1.22.35 3.63 1.26 6.13 3.8 7.98 7.08 1.27 2.25 1.92 4.69 2.47 7.19 1.5 6.83.38 13.09-3.98 18.67-.04.05-.05.13-.12.28.14-.1.2-.13.24-.18.13-.12.26-.25.38-.38 4.65-5.15 6.21-11.26 5.41-18.02-.43-3.6-2.04-6.76-4.26-9.59-1.73-2.21-3.85-3.94-6.5-4.96-1.29-.49-2.62-.77-4.02-.68zm-3.23 4.09c-.14-.16-.18-.22-.23-.26-.08-.08-.17-.15-.26-.22-1.5-1.16-3.16-2.03-4.98-2.56-1.65-.48-3.34-.85-5.07-.5-3 .61-5.66 1.96-8.03 3.88-.19.16-.37.34-.55.51.21 0 .36-.08.51-.16 1.57-.85 3.19-1.61 4.94-1.95 1.5-.29 3.04-.38 4.56-.57 2.28-.28 4.5-.04 6.64.79.8.31 1.56.66 2.47 1.04zm-8.9-11.14c.01.03.02.05.03.08.09 0 .19.01.28 0 2.07-.21 4.14-.33 6.21-.07 1.33.16 2.64.45 3.96.61 2.92.34 5.59 1.27 7.91 3.12.18.14.36.27.54.4-.08-.26-.21-.45-.36-.62-1.23-1.45-2.73-2.57-4.43-3.41-1.57-.77-3.17-1.45-4.97-1.51-2.78-.08-5.5.31-8.17 1.05-.34.11-.67.24-1 .35z" />
	<path
		d="M260.95 60.55c1.4-.09 2.72.19 4.01.69 2.65 1.02 4.77 2.75 6.5 4.96 2.22 2.84 3.84 5.99 4.26 9.59.8 6.76-.76 12.86-5.41 18.02-.12.13-.25.26-.38.38-.05.04-.1.08-.24.18.06-.16.08-.23.12-.28 4.36-5.58 5.48-11.84 3.98-18.67-.55-2.5-1.2-4.95-2.47-7.19-1.85-3.28-4.35-5.82-7.98-7.08-.4-.14-.81-.25-1.22-.35-.38-.1-.78-.17-1.17-.25zM231.5 95.18c-.13-.05-.28-.07-.4-.14-3.25-2.15-5.64-5.01-7.05-8.67-.53-1.39-.51-2.86-.39-4.31.23-2.7.95-5.29 2.03-7.77.06-.13.13-.25.3-.35l-.33 1.6c-.51 2.47-.84 4.97-.46 7.48.69 4.55 2.42 8.59 5.9 11.74.14.13.26.29.39.43l.01-.01zm26.22-30.54c-.91-.38-1.67-.74-2.46-1.04-2.14-.83-4.36-1.06-6.64-.79-1.52.18-3.06.28-4.56.57-1.75.34-3.37 1.1-4.94 1.95-.15.08-.3.16-.51.16.18-.17.36-.35.55-.51 2.37-1.93 5.03-3.27 8.03-3.88 1.73-.35 3.41.02 5.07.5 1.82.53 3.48 1.4 4.98 2.56.09.07.18.14.26.22.04.04.08.1.22.26zm-8.9-11.14c.33-.11.66-.24.99-.34 2.67-.75 5.39-1.14 8.17-1.05 1.8.05 3.4.73 4.97 1.51 1.7.84 3.2 1.96 4.43 3.41.15.17.28.36.36.62-.18-.13-.36-.26-.54-.4-2.31-1.85-4.99-2.78-7.91-3.12-1.33-.16-2.64-.45-3.96-.61-2.07-.26-4.14-.14-6.21.07-.09.01-.19 0-.28 0 0-.03-.01-.06-.02-.09z" />
</svg>
